<svg width="163" height="130" viewBox="0 0 163 130" fill="none" xmlns="http://www.w3.org/2000/svg">
<path d="M0 73.7051C0 71.1409 2.72827 69.0623 6.09376 69.0623C9.45924 69.0623 12.1875 71.1409 12.1875 73.7051V88.7944C12.1875 91.3586 9.45924 93.4373 6.09376 93.4373C2.72827 93.4373 0 91.3586 0 88.7944V73.7051Z" fill="url(#paint0_linear)"/>
<path d="M150.313 73.7051C150.313 71.1409 153.041 69.0623 156.406 69.0623C159.772 69.0623 162.5 71.1409 162.5 73.7051V88.7944C162.5 91.3586 159.772 93.4373 156.406 93.4373C153.041 93.4373 150.313 91.3586 150.313 88.7944V73.7051Z" fill="url(#paint1_linear)"/>
<path d="M93.4375 12.1875C93.4375 18.9185 87.981 24.375 81.25 24.375C74.519 24.375 69.0625 18.9185 69.0625 12.1875C69.0625 5.45654 74.519 0 81.25 0C87.981 0 93.4375 5.45654 93.4375 12.1875Z" fill="url(#paint2_linear)"/>
<path fill-rule="evenodd" clip-rule="evenodd" d="M111.221 36.4082H51.2795C36.1666 36.4082 23.9151 48.979 23.9151 64.4858V89.8894C23.9151 105.396 36.1666 117.967 51.2795 117.967H111.221C126.334 117.967 138.585 105.396 138.585 89.8894V64.4858C138.585 48.979 126.334 36.4082 111.221 36.4082ZM51.2795 24.375C29.6896 24.375 12.1875 42.3332 12.1875 64.4858V89.8894C12.1875 112.042 29.6896 130 51.2795 130H111.221C132.811 130 150.313 112.042 150.313 89.8894V64.4858C150.313 42.3332 132.811 24.375 111.221 24.375H51.2795Z" fill="url(#paint3_linear)"/>
<path d="M60.9378 79.2185C60.9378 84.8277 56.3906 89.3748 50.7815 89.3748C45.1724 89.3748 40.6252 84.8277 40.6252 79.2185C40.6252 73.6094 45.1724 69.0623 50.7815 69.0623C56.3906 69.0623 60.9378 73.6094 60.9378 79.2185Z" fill="url(#paint4_linear)"/>
<path d="M121.875 79.2185C121.875 84.8277 117.328 89.3748 111.719 89.3748C106.11 89.3748 101.562 84.8277 101.562 79.2185C101.562 73.6094 106.11 69.0623 111.719 69.0623C117.328 69.0623 121.875 73.6094 121.875 79.2185Z" fill="url(#paint5_linear)"/>
<defs>
<linearGradient id="paint0_linear" x1="6.09376" y1="69.0623" x2="6.09376" y2="93.4373" gradientUnits="userSpaceOnUse">
<stop stop-color="#01BFFB"/>
<stop offset="1" stop-color="#75DBCA"/>
</linearGradient>
<linearGradient id="paint1_linear" x1="156.406" y1="69.0623" x2="156.406" y2="93.4373" gradientUnits="userSpaceOnUse">
<stop stop-color="#01BFFB"/>
<stop offset="1" stop-color="#75DBCA"/>
</linearGradient>
<linearGradient id="paint2_linear" x1="81.25" y1="0" x2="81.25" y2="24.375" gradientUnits="userSpaceOnUse">
<stop stop-color="#01BFFB"/>
<stop offset="1" stop-color="#75DBCA"/>
</linearGradient>
<linearGradient id="paint3_linear" x1="81.2501" y1="24.375" x2="81.2501" y2="130" gradientUnits="userSpaceOnUse">
<stop stop-color="#01BFFB"/>
<stop offset="1" stop-color="#75DBCA"/>
</linearGradient>
<linearGradient id="paint4_linear" x1="50.7815" y1="69.0623" x2="50.7815" y2="89.3748" gradientUnits="userSpaceOnUse">
<stop stop-color="#01BFFB"/>
<stop offset="1" stop-color="#75DBCA"/>
</linearGradient>
<linearGradient id="paint5_linear" x1="111.719" y1="69.0623" x2="111.719" y2="89.3748" gradientUnits="userSpaceOnUse">
<stop stop-color="#01BFFB"/>
<stop offset="1" stop-color="#75DBCA"/>
</linearGradient>
</defs>
</svg>

